<svg width="18" height="18" viewBox="0 0 18 18" fill="none" xmlns="http://www.w3.org/2000/svg">
<path d="M4.49995 3.60001H1.79995V17.1H16.2V3.60001H13.5V2.70001C13.5 2.33101 13.365 2.01601 13.104 1.74601C12.843 1.48501 12.519 1.35001 12.15 1.35001C11.781 1.35001 11.457 1.48501 11.196 1.74601C10.935 2.01601 10.8 2.33101 10.8 2.70001V3.60001H7.19995V2.70001C7.19995 2.33101 7.06495 2.01601 6.80395 1.74601C6.54295 1.48501 6.21895 1.35001 5.84995 1.35001C5.48095 1.35001 5.15695 1.48501 4.89595 1.74601C4.63495 2.01601 4.49995 2.33101 4.49995 2.70001V3.60001ZM12.6 2.70001V4.95001C12.601 5.0094 12.5902 5.06841 12.5679 5.12351C12.5457 5.1786 12.5126 5.22864 12.4706 5.27065C12.4286 5.31266 12.3785 5.34577 12.3235 5.36799C12.2684 5.39022 12.2093 5.4011 12.15 5.40001C12.0906 5.4011 12.0315 5.39022 11.9765 5.36799C11.9214 5.34577 11.8713 5.31266 11.8293 5.27065C11.7873 5.22864 11.7542 5.1786 11.732 5.12351C11.7097 5.06841 11.6989 5.0094 11.7 4.95001V2.70001C11.7 2.57401 11.745 2.46601 11.835 2.38501C11.916 2.29501 12.024 2.25001 12.15 2.25001C12.276 2.25001 12.384 2.29501 12.465 2.38501C12.555 2.46601 12.6 2.57401 12.6 2.70001ZM6.29995 2.70001V4.95001C6.29995 5.07601 6.25495 5.18401 6.17395 5.27401C6.08395 5.35501 5.97595 5.40001 5.84995 5.40001C5.72395 5.40001 5.61595 5.35501 5.52595 5.27401C5.44495 5.18401 5.39995 5.07601 5.39995 4.95001V2.70001C5.39885 2.64061 5.40974 2.5816 5.43196 2.52651C5.45419 2.47141 5.4873 2.42137 5.5293 2.37936C5.57131 2.33735 5.62136 2.30425 5.67645 2.28202C5.73154 2.2598 5.79055 2.24891 5.84995 2.25001C5.90935 2.24891 5.96836 2.2598 6.02345 2.28202C6.07854 2.30425 6.12859 2.33735 6.1706 2.37936C6.2126 2.42137 6.24571 2.47141 6.26793 2.52651C6.29016 2.5816 6.30105 2.64061 6.29995 2.70001ZM2.69995 16.2V7.20001H15.3V16.2H2.69995ZM11.7 8.10001V9.90001H13.5V8.10001H11.7ZM9.89995 8.10001H8.09995V9.90001H9.89995V8.10001ZM6.29995 9.90001V8.10001H4.49995V9.90001H6.29995ZM11.7 10.8V12.6H13.5V10.8H11.7ZM9.89995 10.8H8.09995V12.6H9.89995V10.8ZM6.29995 12.6V10.8H4.49995V12.6H6.29995ZM11.7 13.5V15.3H13.5V13.5H11.7ZM8.09995 15.3H9.89995V13.5H8.09995V15.3ZM4.49995 15.3H6.29995V13.5H4.49995V15.3Z" fill="#DFAA5B"/>
</svg>
