<svg width="100" height="100" viewBox="0 0 100 100" fill="none" xmlns="http://www.w3.org/2000/svg">
<path d="M87.4997 37.5V75C87.4997 78.3152 86.1827 81.4946 83.8385 83.8388C81.4943 86.183 78.3149 87.5 74.9997 87.5H20.833C17.5178 87.5 14.3384 86.183 11.9942 83.8388C9.64997 81.4946 8.33301 78.3152 8.33301 75V37.5C8.33301 32.875 10.833 28.8333 14.583 26.6667L47.9163 7.41666L81.2497 26.6667C84.9997 28.8333 87.4997 32.875 87.4997 37.5ZM15.4997 31.125L47.9163 52.0833L80.333 31.125L47.9163 12.2083L15.4997 31.125ZM47.9163 57.125L13.0413 34.5C12.708 35.4167 12.4997 36.4583 12.4997 37.5V75C12.4997 77.2101 13.3776 79.3297 14.9405 80.8925C16.5033 82.4553 18.6229 83.3333 20.833 83.3333H74.9997C77.2098 83.3333 79.3294 82.4553 80.8922 80.8925C82.455 79.3297 83.333 77.2101 83.333 75V37.5C83.333 36.4583 83.1247 35.4167 82.7913 34.5L47.9163 57.125Z" fill="#D27C2C"/>
</svg>
