<svg width="129" height="93" viewBox="0 0 129 93" fill="none" xmlns="http://www.w3.org/2000/svg">
<path d="M28.8698 92.3457C28.8979 92.3629 28.9354 92.3543 28.9636 92.3716C29.1849 92.4848 29.4323 92.5479 29.6854 92.5556C29.8248 92.5554 29.9636 92.538 30.0979 92.5039L64.0604 83.973L98.0229 92.5039C98.1573 92.538 98.2961 92.5554 98.4354 92.5556C98.6881 92.5486 98.9349 92.4844 99.1542 92.3687C99.1854 92.3543 99.2198 92.3601 99.2479 92.3428L127.373 76.5237C127.663 76.3595 127.888 76.1125 128.012 75.8202C128.136 75.5279 128.153 75.2064 128.06 74.9044L112.485 24.5708C112.422 24.3612 112.307 24.1676 112.15 24.0048C111.993 23.842 111.798 23.7142 111.579 23.6311C111.361 23.548 111.124 23.5117 110.888 23.525C110.652 23.5383 110.423 23.6009 110.217 23.7079L94.7104 31.7153C94.3709 31.9126 94.1266 32.2225 94.0283 32.5809C93.9299 32.9392 93.985 33.3187 94.182 33.6408C94.3791 33.9629 94.703 34.2029 95.087 34.3114C95.4709 34.4198 95.8854 34.3883 96.2448 34.2233L110.023 27.1047L124.732 74.6369L99.6854 88.7274L93.7354 44.92C93.6841 44.5412 93.4713 44.1968 93.144 43.9624C92.8167 43.728 92.4016 43.6229 91.9901 43.6702C91.5786 43.7175 91.2044 43.9133 90.9498 44.2146C90.6951 44.5159 90.5809 44.8979 90.6323 45.2766L96.5917 89.1646L65.6229 81.3845V73.5324C65.6229 73.151 65.4583 72.7852 65.1653 72.5155C64.8723 72.2458 64.4748 72.0943 64.0604 72.0943C63.646 72.0943 63.2486 72.2458 62.9556 72.5155C62.6626 72.7852 62.4979 73.151 62.4979 73.5324V81.3845L31.5261 89.1646L37.4854 45.2766C37.5109 45.0891 37.4959 44.8988 37.4415 44.7165C37.387 44.5343 37.2941 44.3638 37.168 44.2146C37.0419 44.0654 36.8851 43.9406 36.7066 43.8472C36.5281 43.7538 36.3314 43.6937 36.1276 43.6702C35.9239 43.6468 35.7171 43.6606 35.5191 43.7107C35.3211 43.7608 35.1358 43.8464 34.9738 43.9624C34.8117 44.0785 34.676 44.2227 34.5746 44.387C34.4731 44.5513 34.4078 44.7324 34.3823 44.92L28.4354 88.7274L3.38857 74.6398L18.0979 27.1105L31.8761 34.2291C32.2355 34.394 32.65 34.4255 33.0339 34.3171C33.4179 34.2087 33.7418 33.9686 33.9389 33.6465C34.1359 33.3244 34.191 32.945 34.0926 32.5866C33.9942 32.2283 33.75 31.9184 33.4104 31.7211L17.9011 23.7108C17.6956 23.6026 17.466 23.5391 17.2298 23.5252C16.9935 23.5113 16.757 23.5473 16.5382 23.6306C16.3195 23.7139 16.1244 23.8423 15.9679 24.0057C15.8114 24.1692 15.6977 24.3635 15.6354 24.5737L0.0604431 74.9072C-0.0337583 75.2092 -0.0174915 75.5313 0.106738 75.8239C0.230967 76.1165 0.456269 76.3634 0.747943 76.5266L28.8698 92.3457Z" fill="#D27C2C"/>
<path d="M63.0012 67.7282C63.288 67.972 63.6636 68.108 64.054 68.1096C64.4444 68.1112 64.8213 67.9782 65.1105 67.7369C66.1512 66.8654 90.623 46.197 90.623 24.9648C90.623 11.254 78.9574 0.51712 64.0605 0.51712C49.1637 0.51712 37.498 11.254 37.498 24.9648C37.498 45.8288 61.9605 66.8424 63.0012 67.7282ZM64.0605 3.39332C77.4199 3.39332 87.498 12.6662 87.498 24.9648C87.498 42.5011 68.7699 60.4486 64.0699 64.6766C59.3793 60.3997 40.623 42.2163 40.623 24.9648C40.623 12.6662 50.7012 3.39332 64.0605 3.39332Z" fill="#D27C2C"/>
<path d="M78.123 24.9649C78.123 17.829 71.8137 12.0219 64.0605 12.0219C56.3074 12.0219 49.998 17.829 49.998 24.9649C49.998 32.1007 56.3074 37.9078 64.0605 37.9078C71.8137 37.9078 78.123 32.1007 78.123 24.9649ZM64.0605 35.0316C58.0293 35.0316 53.123 30.5159 53.123 24.9649C53.123 19.4138 58.0293 14.8981 64.0605 14.8981C70.0918 14.8981 74.998 19.4138 74.998 24.9649C74.998 30.5159 70.0918 35.0316 64.0605 35.0316Z" fill="#D27C2C"/>
</svg>
